<svg xmlns="http://www.w3.org/2000/svg" viewBox="0 0 640 360" fill="none" preserveAspectRatio="xMidYMid slice">
  <defs>
    <linearGradient id="bg" x1="0" y1="0" x2="1" y2="1">
      <stop offset="0%" stop-color="#050b14"/>
      <stop offset="55%" stop-color="#0a1628"/>
      <stop offset="100%" stop-color="#071a2e"/>
    </linearGradient>
    <radialGradient id="glow" cx="78%" cy="45%" r="45%">
      <stop offset="0%" stop-color="#22c55e" stop-opacity="0.35"/>
      <stop offset="100%" stop-color="#22c55e" stop-opacity="0"/>
    </radialGradient>
  </defs>
  <rect width="640" height="360" fill="url(#bg)"/>
  <rect width="640" height="360" fill="url(#glow)"/>
  
  <g stroke="#22c55e" stroke-width="1.1" opacity="0.35" fill="none">
    <path d="M20 40h140v36h90"/><path d="M280 28v90h70"/><path d="M420 50h160v60"/>
    <path d="M60 150h110v80h120"/><path d="M340 170v100h90"/><path d="M500 140h100v110"/>
    <path d="M30 270h170v55"/><path d="M260 290h200"/><path d="M500 260v70h110"/>
    <path d="M560 30v95h70"/><path d="M190 230h120v70"/>
  </g>
  <g fill="#22c55e" opacity="0.55">
    <circle cx="20" cy="40" r="3"/><circle cx="160" cy="76" r="3"/><circle cx="280" cy="118" r="3"/>
    <circle cx="350" cy="28" r="3"/><circle cx="580" cy="50" r="3"/><circle cx="600" cy="110" r="3"/>
    <circle cx="170" cy="230" r="3"/><circle cx="340" cy="270" r="3"/><circle cx="500" cy="250" r="3"/>
    <circle cx="30" cy="325" r="3"/><circle cx="460" cy="290" r="3"/><circle cx="610" cy="330" r="3"/>
  </g>

  
  <g transform="translate(400,90)" opacity="0.92">
    <path fill="#22c55e" d="M40 40h160c18 0 30 14 28 30l-8 55c-2 14-14 25-28 25h-30l-14-22h-36l-14 22H68c-14 0-26-11-28-25l-8-55c-2-16 10-30 28-30z"/>
    <circle cx="80" cy="85" r="10" fill="#0b1220"/><rect x="70" y="75" width="20" height="8" rx="2" fill="#0b1220"/>
    <circle cx="165" cy="78" r="7" fill="#a3e635"/><circle cx="182" cy="92" r="7" fill="#a3e635"/>
    <rect x="30" y="20" width="14" height="14" fill="#a3e635" opacity="0.7"/>
    <rect x="55" y="8" width="14" height="14" fill="#22c55e" opacity="0.5"/>
    <rect x="200" y="25" width="14" height="14" fill="#a3e635" opacity="0.6"/>
  </g>
</svg>
